# Blender 4.2.1 LTS
# www.blender.org
mtllib wireframe_octahedron.mtl
o Cube
v 0.000000 -0.964696 0.000000
v 0.000000 -1.114696 0.000000
v 0.000000 0.964696 0.000000
v 0.000000 1.114696 0.000000
v -0.682254 0.000000 -0.682254
v -0.788320 0.000000 -0.788320
v 0.682254 0.000000 0.682254
v 0.788320 0.000000 0.788320
v -0.682254 0.000000 0.682254
v -0.788320 0.000000 0.788320
v 0.682254 0.000000 -0.682254
v 0.788320 0.000000 -0.788320
v -0.086605 -0.917237 0.000000
v -0.691982 -0.061234 0.605377
v -0.691982 -0.061234 -0.605377
v 0.000000 -0.917237 -0.086605
v -0.605377 -0.061234 -0.691982
v 0.605377 -0.061234 -0.691982
v 0.086605 -0.917237 0.000000
v 0.691982 -0.061234 -0.605377
v 0.691982 -0.061234 0.605377
v 0.000000 -0.917237 0.086605
v 0.605377 -0.061234 0.691982
v -0.605377 -0.061234 0.691982
v 0.691982 0.061234 0.605377
v 0.691982 0.061234 -0.605377
v 0.086605 0.917237 0.000000
v -0.691982 0.061234 -0.605377
v -0.691982 0.061234 0.605377
v -0.086605 0.917237 0.000000
v -0.605377 0.061234 0.691982
v 0.605377 0.061234 0.691982
v 0.000000 0.917237 0.086605
v 0.605377 0.061234 -0.691982
v -0.605377 0.061234 -0.691982
v 0.000000 0.917237 -0.086605
vn 0.3828 0.6984 -0.6048
vn -0.8650 -0.3794 -0.3285
vn 0.9876 -0.1569 -0.0000
vn -0.5364 -0.8439 -0.0000
vn 0.3828 0.6984 0.6048
vn -0.8650 -0.3794 0.3285
vn 0.6048 0.6984 0.3828
vn 0.3285 -0.3794 -0.8650
vn -0.0000 -0.1569 0.9876
vn -0.0000 -0.8439 -0.5364
vn -0.6048 0.6984 0.3828
vn -0.3285 -0.3794 -0.8650
vn -0.3828 0.6984 0.6048
vn 0.8650 -0.3794 0.3285
vn -0.9876 -0.1569 -0.0000
vn 0.5364 -0.8439 -0.0000
vn -0.3828 0.6984 -0.6048
vn 0.8650 -0.3794 -0.3285
vn -0.6048 0.6984 -0.3828
vn -0.3285 -0.3794 0.8650
vn -0.0000 -0.1569 -0.9876
vn -0.0000 -0.8439 0.5364
vn 0.6048 0.6984 -0.3828
vn 0.3285 -0.3794 0.8650
vn -0.9876 0.1569 -0.0000
vn 0.5364 0.8439 -0.0000
vn -0.3828 -0.6984 0.6048
vn 0.8650 0.3794 0.3285
vn -0.3828 -0.6984 -0.6048
vn 0.8650 0.3794 -0.3285
vn 0.9876 0.1569 -0.0000
vn -0.5364 0.8439 -0.0000
vn 0.3828 -0.6984 -0.6048
vn -0.8650 0.3794 -0.3285
vn 0.3828 -0.6984 0.6048
vn -0.8650 0.3794 0.3285
vn -0.0000 0.1569 -0.9876
vn -0.0000 0.8439 0.5364
vn -0.6048 -0.6984 -0.3828
vn -0.3285 0.3794 0.8650
vn 0.6048 -0.6984 -0.3828
vn 0.3285 0.3794 0.8650
vn -0.0000 0.1569 0.9876
vn -0.0000 0.8439 -0.5364
vn 0.6048 -0.6984 0.3828
vn 0.3285 0.3794 -0.8650
vn -0.6048 -0.6984 0.3828
vn -0.3285 0.3794 -0.8650
s 0
f 13//1 14//1 9//1 1//1
f 14//2 13//2 2//2 10//2
f 14//3 15//3 5//3 9//3
f 15//4 14//4 10//4 6//4
f 15//5 13//5 1//5 5//5
f 13//6 15//6 6//6 2//6
f 16//7 17//7 5//7 1//7
f 17//8 16//8 2//8 6//8
f 17//9 18//9 11//9 5//9
f 18//10 17//10 6//10 12//10
f 18//11 16//11 1//11 11//11
f 16//12 18//12 12//12 2//12
f 19//13 20//13 11//13 1//13
f 20//14 19//14 2//14 12//14
f 20//15 21//15 7//15 11//15
f 21//16 20//16 12//16 8//16
f 21//17 19//17 1//17 7//17
f 19//18 21//18 8//18 2//18
f 22//19 23//19 7//19 1//19
f 23//20 22//20 2//20 8//20
f 23//21 24//21 9//21 7//21
f 24//22 23//22 8//22 10//22
f 24//23 22//23 1//23 9//23
f 22//24 24//24 10//24 2//24
f 25//25 26//25 11//25 7//25
f 26//26 25//26 8//26 12//26
f 26//27 27//27 3//27 11//27
f 27//28 26//28 12//28 4//28
f 27//29 25//29 7//29 3//29
f 25//30 27//30 4//30 8//30
f 28//31 29//31 9//31 5//31
f 29//32 28//32 6//32 10//32
f 29//33 30//33 3//33 9//33
f 30//34 29//34 10//34 4//34
f 30//35 28//35 5//35 3//35
f 28//36 30//36 4//36 6//36
f 31//37 32//37 7//37 9//37
f 32//38 31//38 10//38 8//38
f 32//39 33//39 3//39 7//39
f 33//40 32//40 8//40 4//40
f 33//41 31//41 9//41 3//41
f 31//42 33//42 4//42 10//42
f 34//43 35//43 5//43 11//43
f 35//44 34//44 12//44 6//44
f 35//45 36//45 3//45 5//45
f 36//46 35//46 6//46 4//46
f 36//47 34//47 11//47 3//47
f 34//48 36//48 4//48 12//48
